# xmcd CD database file
#
# Track frame offsets:
#	150
#	16929
#	41961
#	65554
#	90499
#	119874
#	147912
#	174744
#	200378
#
# Disc length: 2817 seconds
#
# Revision: 1
# Processed by: cddbd v1.5.2PL0 Copyright (c) Steve Scherf et al.
# Submitted via: CDex 1.51
#
DISCID=840aff09
DTITLE=Willie King - I Am The Blues
DYEAR=2000
DGENRE=Blues
TTITLE0=Strolling With Willie
TTITLE1=Betty's Place
TTITLE2=I Am The Blues
TTITLE3=Crawlin'
TTITLE4=All Tied Up
TTITLE5=Shake It
TTITLE6=You're Going To Worry
TTITLE7=The Wolf Is Back
TTITLE8=Willie's Testament
EXTD=YEAR: 2000
EXTT0=
EXTT1=
EXTT2=
EXTT3=
EXTT4=
EXTT5=
EXTT6=
EXTT7=
EXTT8=
PLAYORDER=
